<svg width="1024" height="1024" viewBox="0 0 1024 1024" fill="none" xmlns="http://www.w3.org/2000/svg">
<path d="M127.386 336.7C127.386 221.099 221.099 127.386 336.7 127.386H687.3C802.901 127.386 896.614 221.099 896.614 336.7V687.3C896.614 802.901 802.901 896.614 687.3 896.614H336.7C221.099 896.614 127.386 802.901 127.386 687.3V336.7Z" fill="white"/>
<path d="M854.228 336.7C854.228 244.508 779.492 169.772 687.3 169.772H336.7C244.508 169.772 169.772 244.508 169.772 336.7V687.3C169.772 779.492 244.508 854.228 336.7 854.228H687.3C779.492 854.228 854.228 779.492 854.228 687.3V336.7ZM939 687.3C939 826.31 826.31 939 687.3 939H336.7C197.69 939 85 826.31 85 687.3V336.7C85 197.69 197.69 85 336.7 85H687.3C826.31 85 939 197.69 939 336.7V687.3Z" fill="#09090B"/>
<path d="M469.816 396.906C486.94 385.704 497.348 370.244 498.417 350.245C499.532 329.404 490.024 314.085 464.812 309.555C419.26 301.372 367.779 330.813 358.666 382.53C355.756 399.046 358.923 414.738 368.215 429.04C379.696 446.712 395.69 460.033 411.149 473.837C428.18 489.046 446.476 502.831 462.397 519.289C464.154 521.105 465.608 521.94 468.244 520.657C499.873 505.259 529.07 486.542 552.069 459.383C555.207 455.678 557.7 451.426 560.466 447.41C561.422 446.023 561.882 444.142 564.447 443.97C567.183 447.278 567.897 451.175 566.785 455.39C564.784 462.974 560.505 469.368 555.6 475.297C537.384 497.315 514.07 512.805 489.439 526.572C485.208 528.937 480.948 531.25 476.532 533.679C477.839 538.024 480.799 540.872 483.042 544.075C512.814 586.602 506.828 640.053 474.221 677.962C447.484 709.046 412.517 725.63 372.892 733.073C348.7 737.617 324.306 737.852 300.264 732.077C276.201 726.297 255.28 714.995 241.021 693.89C220.705 663.818 226.195 625.077 249.389 597.928C271.085 572.533 299.577 558.659 331.785 551.797C335.134 551.084 338.713 551.307 342.182 551.354C344.059 551.38 346.365 551.636 346.672 554.043C346.955 556.254 344.702 556.659 343.218 557.389C330.383 563.697 317.625 570.15 305.734 578.148C289.984 588.742 277.183 601.979 268.556 619.118C255.097 645.856 259.664 676.94 280.236 695.55C292.586 706.722 307.487 711.984 323.847 713.775C346.186 716.221 367.784 712.863 388.214 704.026C417.934 691.171 439.525 670.199 449.036 638.391C456.743 612.616 451.697 589.03 435.672 567.855C424.263 552.78 428.992 554.754 412.162 561.724C391.398 570.324 370.378 578.387 350.423 588.827C333.713 597.569 317.22 606.724 303.879 620.398C294.442 630.071 287.729 641.263 285.436 654.886C284.39 661.1 285.591 666.997 286.604 672.991C286.938 674.967 288.113 676.96 286.541 679.23C283.079 679.395 282.034 676.521 280.814 674.22C274.202 661.744 274.261 648.826 278.685 635.733C283.962 620.119 294.432 608.397 307.054 598.35C322.729 585.873 340.46 576.912 358.44 568.368C374.83 560.578 391.83 554.264 408.622 547.444C410.376 546.732 412.306 546.327 413.599 544.626C413.602 542.207 411.622 541.048 410.144 539.731C395.827 526.971 381.31 514.434 367.114 501.543C350.961 486.875 335.025 471.934 324.158 452.624C304.146 417.063 307.433 382.069 329.029 348.895C351.329 314.639 384.503 296.438 424.343 289.8C446.006 286.19 467.377 287.05 488.122 294.996C521.487 307.775 533.871 339.663 526.898 370.421C521.994 392.049 511.317 409.944 491.844 421.504C479.731 428.694 466.965 430.3 454.019 423.362C448.789 420.56 444.701 416.619 442.981 410.704C441.688 406.255 442.912 404.025 447.384 404.077C455.597 404.17 462.696 401.236 469.816 396.906Z" fill="#09090B"/>
<path d="M789.732 584.694C797.089 592.051 797.089 603.978 789.732 611.335L669.846 731.221C662.489 738.577 650.562 738.577 643.205 731.221L523.319 611.335C515.962 603.978 515.962 592.051 523.319 584.694C530.676 577.337 542.604 577.337 549.96 584.694L637.687 672.421L637.687 306.599C637.687 296.195 646.121 287.761 656.525 287.761C666.93 287.761 675.364 296.195 675.364 306.599L675.364 672.421L763.09 584.694C770.447 577.337 782.375 577.337 789.732 584.694Z" fill="#923DDF"/>
</svg>
